<svg width="60" height="60" viewBox="0 0 60 60" fill="none" xmlns="http://www.w3.org/2000/svg">
<path d="M29.984 7C17.8422 7 7.99929 16.8497 7.99929 29C7.99929 41.1503 17.8422 51 29.984 51C42.1258 51 51.9687 41.1503 51.9687 29C51.9687 16.8497 42.1258 7 29.984 7Z" fill="white"/>
<path fill-rule="evenodd" clip-rule="evenodd" d="M26.456 24.3232L30.9508 28.7407L26.456 33.1581C26.0042 33.6021 26.0042 34.3194 26.456 34.7634C26.9078 35.2074 27.6377 35.2074 28.0895 34.7634L33.4068 29.5376C33.8586 29.0936 33.8586 28.3764 33.4068 27.9323L28.0895 22.7066C27.6377 22.2625 26.9078 22.2625 26.456 22.7066C26.0158 23.1506 26.0042 23.8792 26.456 24.3232Z" fill="#757779"/>
</svg>
